<?xml version="1.0" standalone="no"?>
<!DOCTYPE svg PUBLIC "-//W3C//DTD SVG 20010904//EN"
 "http://www.w3.org/TR/2001/REC-SVG-20010904/DTD/svg10.dtd">
<svg version="1.0" xmlns="http://www.w3.org/2000/svg"
 width="768.000000pt" height="768.000000pt" viewBox="0 0 768.000000 768.000000"
 preserveAspectRatio="xMidYMid meet">
<metadata>
Created by potrace 1.16, written by Peter Selinger 2001-2019
</metadata>
<g transform="translate(0.000000,768.000000) scale(0.100000,-0.100000)"
fill="#000000" stroke="none">
<path d="M2272 6179 c-116 -16 -141 -35 -508 -403 -233 -232 -349 -355 -364
-386 -66 -130 -66 -267 0 -395 12 -25 267 -287 675 -695 l655 -655 -649 -650
c-407 -409 -658 -668 -675 -697 -52 -90 -67 -193 -45 -300 24 -112 43 -135
403 -494 409 -409 394 -399 581 -399 192 0 132 -47 892 710 358 357 655 651
660 652 4 2 301 -290 658 -648 562 -562 658 -654 710 -680 79 -39 161 -52 245
-38 128 20 146 33 498 383 178 177 338 341 356 366 19 25 44 73 56 108 32 87
25 210 -15 303 -27 60 -69 105 -682 719 -359 361 -653 658 -653 661 0 3 292
298 650 656 606 606 652 654 681 717 44 95 52 218 19 308 -12 35 -35 81 -50
103 -16 22 -176 187 -357 366 -357 355 -374 368 -503 388 -77 13 -174 0 -236
-30 -69 -33 -174 -132 -788 -749 l-590 -591 -655 654 c-706 703 -702 700 -818
713 -26 3 -59 6 -73 8 -14 1 -49 -1 -78 -5z"/>
</g>
</svg>
